<svg width="131" height="22" viewBox="0 0 131 22" fill="none" xmlns="http://www.w3.org/2000/svg">
<g clip-path="url(#clip0_19_85)">
<path fill-rule="evenodd" clip-rule="evenodd" d="M33.372 6.20684C34.1353 4.42105 37.2254 -0.00482252 43.2736 3.94432e-06C49.3286 0.00483041 54.2533 4.77917 54.2543 10.9252C54.2562 16.9448 49.3286 21.9459 43.2736 21.9479C37.2254 21.9508 34.2431 17.5683 33.3836 15.8173C33.3788 18.5983 30.6984 21.8427 26.9323 21.8427L17.59 21.8407V0.357162H27.6102C30.7208 0.361024 33.3788 3.52525 33.372 6.20684ZM23.1779 16.8376H26.1496C27.0139 16.8376 27.6947 15.9891 27.6947 15.0229C27.6947 14.0556 27.0139 13.2071 26.1496 13.2071H23.1779V16.8376ZM23.1886 8.77162H26.1603C27.0246 8.77162 27.7054 7.92216 27.7054 6.95494C27.7054 5.98868 27.0246 5.14019 26.1603 5.14019H23.1886V8.77162ZM32.3309 9.57668C31.9308 10.0709 30.7965 10.8441 30.1158 10.93C30.8072 11.0159 31.8871 11.875 32.3436 12.5739C32.1794 11.961 32.1901 10.1887 32.3309 9.57668ZM37.7761 10.93C37.7761 13.9504 40.2389 16.3984 43.2775 16.3984C46.3152 16.3984 48.779 13.9504 48.779 10.93C48.779 7.90962 46.3162 5.46163 43.2775 5.46163C40.2389 5.46163 37.7761 7.91058 37.7761 10.93ZM84.7673 7.9434C84.7692 7.95788 84.7673 21.4749 84.7673 21.4749C84.7673 21.6564 84.644 21.8407 84.4643 21.8407H82.6163C81.5354 21.8427 80.6381 20.9266 80.6362 19.8377V7.99167C80.5536 5.42881 78.7434 4.07451 76.5224 4.07837C74.3024 4.08126 72.4951 5.49445 72.4203 8.05731V21.4913C72.4203 21.6728 72.2922 21.8398 72.1125 21.8398H70.2644C69.1835 21.8417 68.2862 20.8822 68.2843 19.7943V8.00904C68.2017 5.44619 66.3915 4.09188 64.1705 4.09574C61.9505 4.09864 60.1432 5.45777 60.0684 8.02062V21.5087C60.0684 21.6901 59.9403 21.8398 59.7606 21.8398H57.9126C56.8317 21.8417 55.9392 20.9604 55.9373 19.8715C55.9373 19.8715 55.9363 8.00325 55.9373 7.99167C56.044 2.7897 59.6848 0.0289627 64.1657 0.023171C66.6246 0.0193098 68.833 0.846566 70.345 2.45281C71.8531 0.841739 74.0586 0.00965687 76.5175 0.0057957C80.9935 0.000969244 84.641 2.74819 84.7673 7.9434ZM127.344 21.5811C127.418 21.6892 127.337 21.833 127.203 21.833L123.902 21.8417C123.128 21.8436 122.373 21.75 121.704 20.8166L118.327 15.8627C118.062 15.4746 117.679 15.0151 117.135 15.0151C116.589 15.0151 116.206 15.4746 115.942 15.8627L112.564 20.8166C111.895 21.75 111.141 21.8436 110.366 21.8417H107.065C106.931 21.8417 106.851 21.6892 106.924 21.5811L113.438 12.0237C113.628 11.7447 113.72 11.4214 113.716 11.098C113.72 10.7746 113.628 10.4512 113.438 10.1723L106.924 0.614896C106.851 0.506783 106.931 0.360058 107.065 0.360058H110.366C111.141 0.358128 111.895 0.445969 112.564 1.37941L115.942 6.33329C116.206 6.72134 116.59 7.18082 117.135 7.18082C117.678 7.18082 118.062 6.72134 118.327 6.33329L121.704 1.37941C122.373 0.445969 123.128 0.358128 123.902 0.360058H127.203C127.337 0.360058 127.418 0.506783 127.344 0.614896L120.83 10.1723C120.641 10.4512 120.549 10.7746 120.552 11.098C120.549 11.4214 120.641 11.7447 120.83 12.0237L127.344 21.5811ZM104.327 0.360058H105.627C105.812 0.360058 105.96 0.506783 105.96 0.691154L105.952 21.582C105.952 21.7635 105.804 21.8427 105.619 21.8427H103.733C102.685 21.8427 101.827 21.11 101.745 20.0907C100.302 21.2519 98.0457 22 95.7703 22C89.8269 22 85.7259 17.7981 85.7259 11.0043C85.7259 4.26467 89.7589 0.00869158 95.8188 0.00869158C97.8222 0.00869158 100.247 0.617792 102.117 2.1835L102.598 1.34948C102.954 0.737488 103.614 0.361024 104.327 0.360058ZM89.7599 11.0034C89.7599 15.3569 92.2848 17.9062 95.7305 17.9062C99.1761 17.9062 101.701 15.3569 101.701 11.0034C101.701 6.64991 99.1761 4.10057 95.7305 4.10057C92.2848 4.10057 89.7599 6.64991 89.7599 11.0034ZM10.4988 8.35075H6.6881V0.359093H0.636963V21.8417H6.6881V13.5064H10.4988V21.8417H16.3693V0.359093H10.4988V8.35075ZM43.2775 6.63157C40.8886 6.63157 38.953 8.55636 38.953 10.93C38.953 13.3046 40.8895 15.2294 43.2775 15.2294C45.6655 15.2294 47.602 13.3046 47.602 10.93C47.602 8.55636 45.6655 6.63157 43.2775 6.63157ZM127.897 0.55794H128.195V1.41126H128.438V0.55794H128.745V0.359089H127.897V0.55794ZM129.707 0.359089L129.421 0.827256L129.134 0.359089H128.892V1.41126H129.134V0.800228L129.408 1.24619H129.435L129.707 0.800228V1.41126H129.95V0.359089H129.707Z" fill="white"/>
</g>
<defs>
<clipPath id="clip0_19_85">
<rect width="129.781" height="22" fill="white" transform="translate(0.636963)"/>
</clipPath>
</defs>
</svg>
